<svg class="diagram-root" style="background: #f5f6f6" xmlns="http://www.w3.org/2000/svg" xmlns:xlink="http://www.w3.org/1999/xlink"><style>.diagram-root { font-family: "Helvetica Neue", sans-serif; font-size: 12px; } .t { overflow: visible; } .t-bg { y: 40; fill: #fff;   } .th { fill: #005aa0;   } .tht { fill: #fff; font-size: 14px;  } .tf { fill: #323c46; overflow: visible; } .tf.pk { fill: #005aa0; font-weight: bold; } .tf.fk { font-weight: bold; } .ty { fill: #adb1b5; font-weight: normal; text-anchor: end; } .r { fill: transparent; stroke: #c3c3c3; stroke-width: 1; } .l { stroke: 1; } .i { fill: #c2c7ce; stroke: #c2c7ce; } .i.ix { fill: #afb3b6; stroke: #000; } .fa { fill: transparent; overflow: visible; } .fa .bg.hover { fill: #f7f7f7; } .c { cy: 12; r: 4; stroke: #d2d2dc; fill: #d2d2dc; } .hr { fill: transparent; stroke: #323c46; stroke-opacity: 0.035; stroke-width: 13; } .dc { stroke: #fa5a3c; fill: #fa5a3c; } .x { stroke: white; stroke-width: 1; } .hl .th { fill: #1b9bff; } .hl .tht {  } .fhl .bg { fill: #e7f4ff; } .fhls .bg {  } .r.hl { stroke: #1b9bff; } .dim { opacity: 0.25; }</style><g class="drawing-wrapper" transform="translate(2, 18) scale(1,1)"><g class="rs"><path d="M 219.17 387 m -1, 0 a 1,1 0 1,0 2,0 a 1,1 0 1,0 -2,0 M 219.17 387 m -0.5, 0 a 0.5,0.5 0 1,0 1,0 a 0.5,0.5 0 1,0 -1,0  M219.17 387 L219.17 387 231.17 387 M 219.17 393 m -1, 0 a 1,1 0 1,0 2,0 a 1,1 0 1,0 -2,0 M 219.17 393 m -0.5, 0 a 0.5,0.5 0 1,0 1,0 a 0.5,0.5 0 1,0 -1,0  M219.17 393 L219.17 393 226.17 387 219.17 381 M 219.17 381 m -1, 0 a 1,1 0 1,0 2,0 a 1,1 0 1,0 -2,0 M 219.17 381 m -0.5, 0 a 0.5,0.5 0 1,0 1,0 a 0.5,0.5 0 1,0 -1,0  M231.17 387 Q 266.38 387, 301.58 321 T 372 255 M 384 255 m -1, 0 a 1,1 0 1,0 2,0 a 1,1 0 1,0 -2,0 M 384 255 m -0.5, 0 a 0.5,0.5 0 1,0 1,0 a 0.5,0.5 0 1,0 -1,0  M384 255 L384 255 372 255 M378 261 L378 261 378 249" id="h2405255031" class="r"></path><path d="M 219.17 412 m -1, 0 a 1,1 0 1,0 2,0 a 1,1 0 1,0 -2,0 M 219.17 412 m -0.5, 0 a 0.5,0.5 0 1,0 1,0 a 0.5,0.5 0 1,0 -1,0  M219.17 412 L219.17 412 231.17 412 M 219.17 418 m -1, 0 a 1,1 0 1,0 2,0 a 1,1 0 1,0 -2,0 M 219.17 418 m -0.5, 0 a 0.5,0.5 0 1,0 1,0 a 0.5,0.5 0 1,0 -1,0  M219.17 418 L219.17 418 226.17 412 219.17 406 M 219.17 406 m -1, 0 a 1,1 0 1,0 2,0 a 1,1 0 1,0 -2,0 M 219.17 406 m -0.5, 0 a 0.5,0.5 0 1,0 1,0 a 0.5,0.5 0 1,0 -1,0  M231.17 412 Q 264.88 412, 298.58 396 T 366 380 M 378 380 m -1, 0 a 1,1 0 1,0 2,0 a 1,1 0 1,0 -2,0 M 378 380 m -0.5, 0 a 0.5,0.5 0 1,0 1,0 a 0.5,0.5 0 1,0 -1,0  M378 380 L378 380 366 380 M372 386 L372 386 372 374" id="h734363672" class="r"></path><path d="M 384 91 m -1, 0 a 1,1 0 1,0 2,0 a 1,1 0 1,0 -2,0 M 384 91 m -0.5, 0 a 0.5,0.5 0 1,0 1,0 a 0.5,0.5 0 1,0 -1,0  M384 91 L384 91 372 91 M 384 97 m -1, 0 a 1,1 0 1,0 2,0 a 1,1 0 1,0 -2,0 M 384 97 m -0.5, 0 a 0.5,0.5 0 1,0 1,0 a 0.5,0.5 0 1,0 -1,0  M384 97 L384 97 377 91 384 85 M 384 85 m -1, 0 a 1,1 0 1,0 2,0 a 1,1 0 1,0 -2,0 M 384 85 m -0.5, 0 a 0.5,0.5 0 1,0 1,0 a 0.5,0.5 0 1,0 -1,0  M372 91 Q 336.79 91, 301.58 101.5 T 231.17 112 M 219.17 112 m -1, 0 a 1,1 0 1,0 2,0 a 1,1 0 1,0 -2,0 M 219.17 112 m -0.5, 0 a 0.5,0.5 0 1,0 1,0 a 0.5,0.5 0 1,0 -1,0  M219.17 112 L219.17 112 231.17 112 M225.17 118 L225.17 118 225.17 106" id="h1136315302" class="r"></path></g><g class="hrs"></g><g class="ts"><svg width="189.17" height="400" x="30" y="30" id="h3542347218" class="t"><rect height="40" width="189.17" class="th"></rect><text x="13" y="25" class="tht">Campaign</text><rect height="360" width="189.17" class="t-bg"></rect><text x="13" y="61" class="tf">cf_id<tspan x="176.17" class="ty">int</tspan></text><text x="13" y="86" class="tf pk">contact_id<tspan x="176.17" class="ty">int</tspan></text><path d="M7,14A2,2 0 0,1 5,12A2,2 0 0,1 7,10A2,2 0 0,1 9,12A2,2 0 0,1 7,14M12.65,10C11.83,7.67 9.61,6 7, 6A6, 6 0 0, 0 1, 12A6, 6 0 0, 0 7, 18C9.61, 18 11.83, 16.33 12.65, 14H17V18H21V14H23V10H12.65Z" class="i pk" transform="translate(143.496171875, 73) scale(0.65)"></path><text x="13" y="111" class="tf">company_name<tspan x="176.17" class="ty">VARCHAR</tspan></text><text x="13" y="136" class="tf">description<tspan x="176.17" class="ty">VARCHAR</tspan></text><text x="13" y="161" class="tf">goal<tspan x="176.17" class="ty">float</tspan></text><text x="13" y="186" class="tf">pledged<tspan x="176.17" class="ty">float</tspan></text><text x="13" y="211" class="tf">outcome<tspan x="176.17" class="ty">VARCHAR</tspan></text><text x="13" y="236" class="tf">backers_count<tspan x="176.17" class="ty">int</tspan></text><text x="13" y="261" class="tf">country<tspan x="176.17" class="ty">VARCHAR</tspan></text><text x="13" y="286" class="tf">currency<tspan x="176.17" class="ty">VARCHAR</tspan></text><text x="13" y="311" class="tf">launch_date<tspan x="176.17" class="ty">date</tspan></text><text x="13" y="336" class="tf">end_date<tspan x="176.17" class="ty">date</tspan></text><text x="13" y="361" class="tf fk">category_id<tspan x="176.17" class="ty">VARCHAR</tspan></text><text x="13" y="386" class="tf fk">subcategory_id<tspan x="176.17" class="ty">VARCHAR</tspan></text></svg><svg width="159.81" height="150" x="384" y="34" id="h1934035236" class="t"><rect height="40" width="159.81" class="th"></rect><text x="13" y="25" class="tht">Contacts</text><rect height="110" width="159.81" class="t-bg"></rect><text x="13" y="61" class="tf fk">contact_id<tspan x="146.81" class="ty">int</tspan></text><text x="13" y="86" class="tf">first_name<tspan x="146.81" class="ty">VARCHAR</tspan></text><text x="13" y="111" class="tf">last_name<tspan x="146.81" class="ty">VARCHAR</tspan></text><text x="13" y="136" class="tf">email<tspan x="146.81" class="ty">VARCHAR</tspan></text></svg><svg width="185.83" height="100" x="384" y="198" id="h1903237708" class="t"><rect height="40" width="185.83" class="th"></rect><text x="13" y="25" class="tht">Category</text><rect height="60" width="185.83" class="t-bg"></rect><text x="13" y="61" class="tf pk">category_id<tspan x="172.83" class="ty">VARCHAR</tspan></text><path d="M7,14A2,2 0 0,1 5,12A2,2 0 0,1 7,10A2,2 0 0,1 9,12A2,2 0 0,1 7,14M12.65,10C11.83,7.67 9.61,6 7, 6A6, 6 0 0, 0 1, 12A6, 6 0 0, 0 7, 18C9.61, 18 11.83, 16.33 12.65, 14H17V18H21V14H23V10H12.65Z" class="i pk" transform="translate(95.03898437500001, 48) scale(0.65)"></path><text x="13" y="86" class="tf">category<tspan x="172.83" class="ty">VARCHAR</tspan></text></svg><svg width="205.18" height="100" x="378" y="323" id="h2584823334" class="t"><rect height="40" width="205.18" class="th"></rect><text x="13" y="25" class="tht">Subcategory</text><rect height="60" width="205.18" class="t-bg"></rect><text x="13" y="61" class="tf pk">subcategory_id<tspan x="192.18" class="ty">VARCHAR</tspan></text><path d="M7,14A2,2 0 0,1 5,12A2,2 0 0,1 7,10A2,2 0 0,1 9,12A2,2 0 0,1 7,14M12.65,10C11.83,7.67 9.61,6 7, 6A6, 6 0 0, 0 1, 12A6, 6 0 0, 0 7, 18C9.61, 18 11.83, 16.33 12.65, 14H17V18H21V14H23V10H12.65Z" class="i pk" transform="translate(114.388984375, 48) scale(0.65)"></path><text x="13" y="86" class="tf">subcategory<tspan x="192.18" class="ty">VARCHAR</tspan></text></svg></g></g><text class="qdbd-link" x="10" y="20">www.quickdatabasediagrams.com</text></svg>